                                                                        S      1
,,12HCuff link v1,12HCuff link v1,7Hunknown,7Hunknown,32,38,7,99,15,,1.,G      1
2,2HMM,1,0.08,15H20161102.143223,0.01,10000.,7Hunknown,7Hunknown,11,0,; G      2
     186       1                                                00000000D      1
     186             -53       1       0                               0D      2
     514       2                                                00010000D      3
     514                       1       1                               0D      4
     510       3                                                00010000D      5
     510             -53       1       1                               0D      6
     510       4                                                00010000D      7
     510             -53       1       1                               0D      8
     510       5                                                00010000D      9
     510             -53       1       1                               0D     10
     510       6                                                00010000D     11
     510             -53       1       1                               0D     12
     508       7                                                00010000D     13
     508                       1       1                               0D     14
     508       8                                                00010000D     15
     508                       1       1                               0D     16
     508       9                                                00010000D     17
     508                       1       1                               0D     18
     508      10                                                00010000D     19
     508                       1       1                               0D     20
     508      11                                                00010000D     21
     508                       1       1                               0D     22
     126      12                                                00010000D     23
     126       0               5       0                               0D     24
     126      17                                                00010000D     25
     126       0               8       0                               0D     26
     126      25                                                00010000D     27
     126       0               3       0                               0D     28
     126      28                                                00010000D     29
     126       0               9       0                               0D     30
     126      37                                                00010000D     31
     126       0               2       0                               0D     32
     126      39                                                00010000D     33
     126       0               9       0                               0D     34
     126      48                                                00010000D     35
     126       0               3       0                               0D     36
     126      51                                                00010000D     37
     126       0              10       0                               0D     38
     128      61                                                00010000D     39
     128       0     -53      13       0                               0D     40
     128      74                                                00010000D     41
     128       0     -53      11       0                               0D     42
     128      85                                                00010000D     43
     128       0     -53      13       0                               0D     44
     128      98                                                00010000D     45
     128       0     -53       3       0                               0D     46
     502     101                                                00010000D     47
     502                       3       1                               0D     48
     504     104                                                00010001D     49
     504                       2       1                               0D     50
     406     106                                                00000000D     51
     406                       1      15                               0D     52
     314     107                                                00000200D     53
     314                       2       0                               0D     54
186,3,1,0,0,1,51;                                                      1P      1
514,4,5,1,7,1,9,1,11,1;                                                3P      2
510,39,1,1,13;                                                         5P      3
510,41,1,1,15;                                                         7P      4
510,43,1,1,17;                                                         9P      5
510,45,2,1,19,21;                                                     11P      6
508,5,0,49,1,1,0,0,49,2,1,0,0,49,3,1,0,0,49,4,1,0,0,49,3,0,0;         13P      7
508,4,0,49,4,0,0,0,49,5,1,0,0,49,6,1,0,0,49,5,0,0;                    15P      8
508,5,0,49,1,0,0,0,49,2,0,0,0,49,7,1,0,0,49,8,0,0,0,49,7,0,0;         17P      9
508,1,0,49,6,0,0;                                                     19P     10
508,1,0,49,8,1,0;                                                     21P     11
126,2,2,0,0,0,0,-4.71238898038469,-4.71238898038469,                  23P     12
-4.71238898038469,-3.14159265358979,-3.14159265358979,                23P     13
-3.14159265358979,1.,0.707106781186548,1.,-1.5,2.,                    23P     14
-2.75545529808155D-16,-1.5,2.,-1.5,2.81151315685087D-16,2.,-1.5,      23P     15
-4.71238898038469,-3.14159265358979,0.,0.,0.;                         23P     16
126,6,2,0,0,0,0,-3.14159265358979,-3.14159265358979,                  25P     17
-3.14159265358979,-1.5707963267949,-1.5707963267949,0.,0.,            25P     18
1.5707963267949,1.5707963267949,1.5707963267949,1.,                   25P     19
0.707106781186548,1.,0.707106781186548,1.,0.707106781186548,1.,       25P     20
2.81151315685087D-16,2.,-1.5,1.5,2.,-1.5,1.5,2.,                      25P     21
9.18485099360515D-17,1.5,2.,1.5,9.74542958129844D-17,2.,1.5,          25P     22
-1.5,2.,1.5,-1.5,2.,9.18485099360515D-17,-3.14159265358979,           25P     23
1.5707963267949,0.,0.,0.;                                             25P     24
126,1,1,0,0,1,0,-0.353553390593274,-0.353553390593274,                27P     25
0.353553390593274,0.353553390593274,1.,1.,-1.5,2.,0.,-2.5,1.,0.,      27P     26
-0.353553390593274,0.353553390593274,0.,0.,0.;                        27P     27
126,8,2,0,1,0,0,-3.14159265358979,-3.14159265358979,                  29P     28
-3.14159265358979,-1.5707963267949,-1.5707963267949,0.,0.,            29P     29
1.5707963267949,1.5707963267949,3.14159265358979,                     29P     30
3.14159265358979,3.14159265358979,1.,0.707106781186548,1.,            29P     31
0.707106781186548,1.,0.707106781186548,1.,0.707106781186548,1.,       29P     32
-2.5,1.,3.06161699786838D-16,-2.5,1.,2.5,1.53080849893419D-16,        29P     33
1.,2.5,2.5,1.,2.5,2.5,1.,0.,2.5,1.,-2.5,1.53080849893419D-16,1.,      29P     34
-2.5,-2.5,1.,-2.5,-2.5,1.,-3.06161699786838D-16,                      29P     35
-3.14159265358979,3.14159265358979,0.,0.,0.;                          29P     36
126,1,1,0,0,1,0,-0.4,-0.4,0.,0.,1.,1.,-2.5,1.,0.,-2.5,0.,0.,          31P     37
-0.4,0.,0.,0.,0.;                                                     31P     38
126,8,2,0,1,0,0,-3.14159265358979,-3.14159265358979,                  33P     39
-3.14159265358979,-1.5707963267949,-1.5707963267949,0.,0.,            33P     40
1.5707963267949,1.5707963267949,3.14159265358979,                     33P     41
3.14159265358979,3.14159265358979,1.,0.707106781186548,1.,            33P     42
0.707106781186548,1.,0.707106781186548,1.,0.707106781186548,1.,       33P     43
-2.5,0.,3.06161699786838D-16,-2.5,0.,2.5,1.53080849893419D-16,        33P     44
0.,2.5,2.5,0.,2.5,2.5,0.,0.,2.5,0.,-2.5,1.53080849893419D-16,0.,      33P     45
-2.5,-2.5,0.,-2.5,-2.5,0.,-3.06161699786838D-16,                      33P     46
-3.14159265358979,3.14159265358979,0.,0.,0.;                          33P     47
126,1,1,0,0,1,0,-0.733333333333333,-0.733333333333333,0.6,0.6,        35P     48
1.,1.,9.74542958129844D-17,2.,-1.5,9.74542958129844D-17,0.,-1.5,      35P     49
-0.733333333333333,0.6,0.,0.,0.;                                      35P     50
126,8,2,0,1,0,0,-3.14159265358979,-3.14159265358979,                  37P     51
-3.14159265358979,-1.5707963267949,-1.5707963267949,0.,0.,            37P     52
1.5707963267949,1.5707963267949,3.14159265358979,                     37P     53
3.14159265358979,3.14159265358979,1.,0.707106781186548,1.,            37P     54
0.707106781186548,1.,0.707106781186548,1.,0.707106781186548,1.,       37P     55
-8.62427240591186D-17,0.,-1.5,-1.5,0.,-1.5,-1.5,0.,                   37P     56
9.18485099360515D-17,-1.5,0.,1.5,9.74542958129844D-17,0.,1.5,         37P     57
1.5,0.,1.5,1.5,0.,9.18485099360515D-17,1.5,0.,-1.5,                   37P     58
2.81151315685087D-16,0.,-1.5,-3.14159265358979,3.14159265358979,      37P     59
0.,0.,0.;                                                             37P     60
128,1,8,1,2,0,1,0,0,1,-0.353553390593274,-0.353553390593274,          39P     61
0.353553390593274,0.353553390593274,-3.14159265358979,                39P     62
-3.14159265358979,-3.14159265358979,-1.5707963267949,                 39P     63
-1.5707963267949,0.,0.,1.5707963267949,1.5707963267949,               39P     64
3.14159265358979,3.14159265358979,3.14159265358979,1.,1.,             39P     65
0.707106781186548,0.707106781186548,1.,1.,0.707106781186548,          39P     66
0.707106781186548,1.,1.,0.707106781186548,0.707106781186548,1.,       39P     67
1.,0.707106781186548,0.707106781186548,1.,1.,-1.5,2.,0.,-2.5,1.,      39P     68
0.,-1.5,2.,1.5,-2.5,1.,2.5,0.,2.,1.5,0.,1.,2.5,1.5,2.,1.5,2.5,        39P     69
1.,2.5,1.5,2.,0.,2.5,1.,0.,1.5,2.,-1.5,2.5,1.,-2.5,0.,2.,-1.5,        39P     70
0.,1.,-2.5,-1.5,2.,-1.5,-2.5,1.,-2.5,-1.5,2.,0.,-2.5,1.,0.,           39P     71
-0.353553390593274,0.353553390593274,-3.14159265358979,               39P     72
3.14159265358979;                                                     39P     73
128,1,8,1,2,0,1,0,0,1,0.,0.,0.4,0.4,-3.14159265358979,                41P     74
-3.14159265358979,-3.14159265358979,-1.5707963267949,                 41P     75
-1.5707963267949,0.,0.,1.5707963267949,1.5707963267949,               41P     76
3.14159265358979,3.14159265358979,3.14159265358979,1.,1.,             41P     77
0.707106781186548,0.707106781186548,1.,1.,0.707106781186548,          41P     78
0.707106781186548,1.,1.,0.707106781186548,0.707106781186548,1.,       41P     79
1.,0.707106781186548,0.707106781186548,1.,1.,-2.5,1.,0.,-2.5,0.,      41P     80
0.,-2.5,1.,2.5,-2.5,0.,2.5,0.,1.,2.5,0.,0.,2.5,2.5,1.,2.5,2.5,        41P     81
0.,2.5,2.5,1.,0.,2.5,0.,0.,2.5,1.,-2.5,2.5,0.,-2.5,0.,1.,-2.5,        41P     82
0.,0.,-2.5,-2.5,1.,-2.5,-2.5,0.,-2.5,-2.5,1.,0.,-2.5,0.,0.,0.,        41P     83
0.4,-3.14159265358979,3.14159265358979;                               41P     84
128,1,8,1,2,0,1,0,0,1,-0.733333333333333,-0.733333333333333,0.6,      43P     85
0.6,-3.14159265358979,-3.14159265358979,-3.14159265358979,            43P     86
-1.5707963267949,-1.5707963267949,0.,0.,1.5707963267949,              43P     87
1.5707963267949,3.14159265358979,3.14159265358979,                    43P     88
3.14159265358979,1.,1.,0.707106781186548,0.707106781186548,1.,        43P     89
1.,0.707106781186548,0.707106781186548,1.,1.,0.707106781186548,       43P     90
0.707106781186548,1.,1.,0.707106781186548,0.707106781186548,1.,       43P     91
1.,9.74542958129844D-17,2.,-1.5,9.74542958129844D-17,0.,-1.5,         43P     92
1.5,2.,-1.5,1.5,0.,-1.5,1.5,2.,0.,1.5,0.,0.,1.5,2.,1.5,1.5,0.,        43P     93
1.5,9.74542958129844D-17,2.,1.5,9.74542958129844D-17,0.,1.5,          43P     94
-1.5,2.,1.5,-1.5,0.,1.5,-1.5,2.,0.,-1.5,0.,0.,-1.5,2.,-1.5,-1.5,      43P     95
0.,-1.5,9.74542958129844D-17,2.,-1.5,9.74542958129844D-17,0.,         43P     96
-1.5,-0.733333333333333,0.6,-3.14159265358979,3.14159265358979;       43P     97
128,1,1,1,1,0,0,1,0,0,-0.251,-0.251,0.251,0.251,-0.251,-0.251,        45P     98
0.251,0.251,1.,1.,1.,1.,2.51,0.,2.51,-2.51,0.,2.51,2.51,0.,           45P     99
-2.51,-2.51,0.,-2.51,-0.251,0.251,-0.251,0.251;                       45P    100
502,5,-1.5,2.,1.83697019872103D-16,9.74542958129844D-17,2.,-1.5,      47P    101
-2.5,1.,3.06161699786838D-16,-2.5,0.,3.06161699786838D-16,            47P    102
-8.62427240591186D-17,0.,-1.5;                                        47P    103
504,8,23,47,1,47,2,25,47,2,47,1,27,47,1,47,3,29,47,3,47,3,31,47,      49P    104
3,47,4,33,47,4,47,4,35,47,2,47,5,37,47,5,47,5;                        49P    105
406,1,5HBody1;                                                        51P    106
314,62.7450980392157,62.7450980392157,62.7450980392157,13HSteel       53P    107
- Satin;                                                              53P    108
S      1G      2D     54P    108                                        T      1
