                                                                        S      1
,,6HRod v3,6HRod v3,7Hunknown,7Hunknown,32,38,7,99,15,,1.,2,2HMM,1,0.08,G      1
15H20161102.143207,0.01,10000.,7Hunknown,7Hunknown,11,0,;               G      2
     186       1                                                00000000D      1
     186             -43       1       0                               0D      2
     514       2                                                00010000D      3
     514                       1       1                               0D      4
     510       3                                                00010000D      5
     510             -43       1       1                               0D      6
     510       4                                                00010000D      7
     510             -43       1       1                               0D      8
     510       5                                                00010000D      9
     510             -43       1       1                               0D     10
     508       6                                                00010000D     11
     508                       1       1                               0D     12
     508       7                                                00010000D     13
     508                       2       1                               0D     14
     508       9                                                00010000D     15
     508                       1       1                               0D     16
     126      10                                                00010000D     17
     126       0               8       0                               0D     18
     126      18                                                00010000D     19
     126       0               4       0                               0D     20
     126      22                                                00010000D     21
     126       0               5       0                               0D     22
     126      27                                                00010000D     23
     126       0               5       0                               0D     24
     126      32                                                00010000D     25
     126       0               2       0                               0D     26
     126      34                                                00010000D     27
     126       0               8       0                               0D     28
     126      42                                                00010000D     29
     126       0               4       0                               0D     30
     128      46                                                00010000D     31
     128       0     -43      23       0                               0D     32
     128      69                                                00010000D     33
     128       0     -43      12       0                               0D     34
     128      81                                                00010000D     35
     128       0     -43      21       0                               0D     36
     502     102                                                00010000D     37
     502                       3       1                               0D     38
     504     105                                                00010001D     39
     504                       2       1                               0D     40
     406     107                                                00000000D     41
     406                       1      15                               0D     42
     314     108                                                00000200D     43
     314                       2       0                               0D     44
186,3,1,0,0,1,41;                                                      1P      1
514,3,5,1,7,1,9,1;                                                     3P      2
510,31,1,1,11;                                                         5P      3
510,33,1,1,13;                                                         7P      4
510,35,1,1,15;                                                         9P      5
508,4,0,39,1,1,0,0,39,2,1,0,0,39,2,0,0,0,39,3,1,0;                    11P      6
508,6,0,39,4,0,0,0,39,5,1,0,0,39,3,0,0,0,39,1,0,0,0,39,5,0,0,0,       13P      7
39,6,0,0;                                                             13P      8
508,4,0,39,4,1,0,0,39,7,0,0,0,39,7,1,0,0,39,6,1,0;                    15P      9
126,6,2,0,0,0,0,-3.14159265358979,-3.14159265358979,                  17P     10
-3.14159265358979,-1.5707963267949,-1.5707963267949,0.,0.,            17P     11
1.5707963267949,1.5707963267949,1.5707963267949,1.,                   17P     12
0.707106781186548,1.,0.707106781186548,1.,0.707106781186548,1.,       17P     13
-1.5,1.5,-1.83697019872103D-16,-1.5,1.5,-1.5,                         17P     14
9.18485099360515D-17,1.5,-1.5,1.5,1.5,-1.5,1.5,1.5,0.,1.5,1.5,        17P     15
1.5,9.18485099360515D-17,1.5,1.5,-3.14159265358979,                   17P     16
1.5707963267949,0.,0.,0.;                                             17P     17
126,2,2,0,0,0,0,0.,0.,0.,1.5707963267949,1.5707963267949,             19P     18
1.5707963267949,1.,0.707106781186548,1.,0.,1.5,1.5,0.,                19P     19
-4.59242549680258D-17,1.5,0.,0.,9.18485099360515D-17,0.,              19P     20
1.5707963267949,0.,0.,0.;                                             19P     21
126,2,2,0,0,0,0,1.5707963267949,1.5707963267949,1.5707963267949,      21P     22
3.14159265358979,3.14159265358979,3.14159265358979,1.,                21P     23
0.707106781186548,1.,9.18485099360515D-17,1.5,1.5,-1.5,1.5,1.5,       21P     24
-1.5,1.5,1.83697019872103D-16,1.5707963267949,3.14159265358979,       21P     25
0.,0.,0.;                                                             21P     26
126,2,2,0,0,0,0,-3.14159265358979,-3.14159265358979,                  23P     27
-3.14159265358979,-1.5707963267949,-1.5707963267949,                  23P     28
-1.5707963267949,1.,0.707106781186548,1.,-1.5,63.5,                   23P     29
1.83697019872103D-16,-1.5,63.5,1.5,9.18485099360515D-17,63.5,         23P     30
1.5,-3.14159265358979,-1.5707963267949,0.,0.,0.;                      23P     31
126,1,1,0,0,1,0,-42.3333333333333,-42.3333333333333,-1.,-1.,1.,       25P     32
1.,-1.5,63.5,0.,-1.5,1.5,0.,-42.3333333333333,-1.,0.,0.,0.;           25P     33
126,6,2,0,0,0,0,-1.5707963267949,-1.5707963267949,                    27P     34
-1.5707963267949,0.,0.,1.5707963267949,1.5707963267949,               27P     35
3.14159265358979,3.14159265358979,3.14159265358979,1.,                27P     36
0.707106781186548,1.,0.707106781186548,1.,0.707106781186548,1.,       27P     37
9.18485099360515D-17,63.5,1.5,1.5,63.5,1.5,1.5,63.5,0.,1.5,63.5,      27P     38
-1.5,9.18485099360515D-17,63.5,-1.5,-1.5,63.5,-1.5,-1.5,63.5,         27P     39
-1.83697019872103D-16,-1.5707963267949,3.14159265358979,0.,0.,        27P     40
0.;                                                                   27P     41
126,2,2,0,0,0,0,-1.5707963267949,-1.5707963267949,                    29P     42
-1.5707963267949,0.,0.,0.,1.,0.707106781186539,1.,0.,65.,             29P     43
9.18485099360515D-17,0.,65.,1.5,0.,63.5,1.5,-1.5707963267949,0.,      29P     44
0.,0.,0.;                                                             29P     45
128,2,8,2,2,0,1,0,0,1,-1.5707963267949,-1.5707963267949,              31P     46
-1.5707963267949,0.,0.,0.,-3.14159265358979,-3.14159265358979,        31P     47
-3.14159265358979,-1.5707963267949,-1.5707963267949,0.,0.,            31P     48
1.5707963267949,1.5707963267949,3.14159265358979,                     31P     49
3.14159265358979,3.14159265358979,1.,0.707106781186548,1.,            31P     50
0.707106781186548,0.5,0.707106781186548,1.,0.707106781186548,1.,      31P     51
0.707106781186548,0.5,0.707106781186548,1.,0.707106781186548,1.,      31P     52
0.707106781186548,0.5,0.707106781186548,1.,0.707106781186548,1.,      31P     53
0.707106781186548,0.5,0.707106781186548,1.,0.707106781186548,1.,      31P     54
0.,1.5,1.5,0.,-4.59242549680258D-17,1.5,0.,0.,                        31P     55
9.18485099360515D-17,1.5,1.5,1.5,1.5,-4.59242549680257D-17,1.5,       31P     56
9.18485099360515D-17,0.,9.18485099360515D-17,1.5,1.5,0.,1.5,0.,       31P     57
0.,9.18485099360515D-17,0.,0.,1.5,1.5,-1.5,1.5,                       31P     58
4.59242549680257D-17,-1.5,9.18485099360515D-17,0.,                    31P     59
-9.18485099360515D-17,0.,1.5,-1.5,0.,4.59242549680258D-17,-1.5,       31P     60
0.,0.,-9.18485099360515D-17,-1.5,1.5,-1.5,-1.5,                       31P     61
4.59242549680257D-17,-1.5,-9.18485099360515D-17,0.,                   31P     62
-9.18485099360515D-17,-1.5,1.5,0.,-1.5,0.,0.,                         31P     63
-9.18485099360515D-17,0.,0.,-1.5,1.5,1.5,-1.5,                        31P     64
-4.59242549680257D-17,1.5,-9.18485099360515D-17,0.,                   31P     65
9.18485099360515D-17,0.,1.5,1.5,0.,-4.59242549680258D-17,1.5,0.,      31P     66
0.,9.18485099360515D-17,-1.5707963267949,0.,-3.14159265358979,        31P     67
3.14159265358979;                                                     31P     68
128,1,8,1,2,0,1,0,0,1,1.,1.,42.3333333333333,42.3333333333333,        33P     69
-3.14159265358979,-3.14159265358979,-3.14159265358979,                33P     70
-1.5707963267949,-1.5707963267949,0.,0.,1.5707963267949,              33P     71
1.5707963267949,3.14159265358979,3.14159265358979,                    33P     72
3.14159265358979,1.,1.,0.707106781186548,0.707106781186548,1.,        33P     73
1.,0.707106781186548,0.707106781186548,1.,1.,0.707106781186548,       33P     74
0.707106781186548,1.,1.,0.707106781186548,0.707106781186548,1.,       33P     75
1.,-1.5,63.5,0.,-1.5,1.5,0.,-1.5,63.5,1.5,-1.5,1.5,1.5,0.,63.5,       33P     76
1.5,0.,1.5,1.5,1.5,63.5,1.5,1.5,1.5,1.5,1.5,63.5,0.,1.5,1.5,0.,       33P     77
1.5,63.5,-1.5,1.5,1.5,-1.5,0.,63.5,-1.5,0.,1.5,-1.5,-1.5,63.5,        33P     78
-1.5,-1.5,1.5,-1.5,-1.5,63.5,0.,-1.5,1.5,0.,1.,42.3333333333333,      33P     79
-3.14159265358979,3.14159265358979;                                   33P     80
128,2,8,2,2,0,1,0,0,1,0.,0.,0.,1.5707963267949,1.5707963267949,       35P     81
1.5707963267949,-3.14159265358979,-3.14159265358979,                  35P     82
-3.14159265358979,-1.5707963267949,-1.5707963267949,0.,0.,            35P     83
1.5707963267949,1.5707963267949,3.14159265358979,                     35P     84
3.14159265358979,3.14159265358979,1.,0.707106781186539,1.,            35P     85
0.707106781186548,0.499999999999994,0.707106781186548,1.,             35P     86
0.707106781186539,1.,0.707106781186548,0.499999999999994,             35P     87
0.707106781186548,1.,0.707106781186539,1.,0.707106781186548,          35P     88
0.499999999999994,0.707106781186548,1.,0.707106781186539,1.,          35P     89
0.707106781186548,0.499999999999994,0.707106781186548,1.,             35P     90
0.707106781186539,1.,0.,65.,9.18485099360515D-17,0.,65.,1.5,0.,       35P     91
63.5,1.5,9.18485099360515D-17,65.,9.18485099360515D-17,1.5,65.,       35P     92
1.5,1.5,63.5,1.5,9.18485099360515D-17,65.,0.,1.5,65.,0.,1.5,          35P     93
63.5,0.,9.18485099360515D-17,65.,-9.18485099360515D-17,1.5,65.,       35P     94
-1.5,1.5,63.5,-1.5,0.,65.,-9.18485099360515D-17,0.,65.,-1.5,0.,       35P     95
63.5,-1.5,-9.18485099360515D-17,65.,-9.18485099360515D-17,-1.5,       35P     96
65.,-1.5,-1.5,63.5,-1.5,-9.18485099360515D-17,65.,0.,-1.5,65.,        35P     97
0.,-1.5,63.5,0.,-9.18485099360515D-17,65.,9.18485099360515D-17,       35P     98
-1.5,65.,1.5,-1.5,63.5,1.5,0.,65.,9.18485099360515D-17,0.,65.,        35P     99
1.5,0.,63.5,1.5,0.,1.5707963267949,-3.14159265358979,                 35P    100
3.14159265358979;                                                     35P    101
502,6,-1.5,1.5,-1.83697019872103D-16,0.,1.5,1.5,0.,0.,                37P    102
9.18485099360515D-17,-1.5,63.5,1.83697019872103D-16,0.,63.5,1.5,      37P    103
0.,65.,9.18485099360515D-17;                                          37P    104
504,7,17,37,1,37,2,19,37,2,37,3,21,37,2,37,1,23,37,4,37,5,25,37,      39P    105
4,37,1,27,37,5,37,4,29,37,6,37,5;                                     39P    106
406,1,5HBody1;                                                        41P    107
314,62.7450980392157,62.7450980392157,62.7450980392157,13HSteel       43P    108
- Satin;                                                              43P    109
S      1G      2D     44P    109                                        T      1
